<?xml version="1.0" standalone="no"?>
<!DOCTYPE svg PUBLIC "-//W3C//DTD SVG 20010904//EN"
 "http://www.w3.org/TR/2001/REC-SVG-20010904/DTD/svg10.dtd">
<svg version="1.0" xmlns="http://www.w3.org/2000/svg"
 width="1024.000000pt" height="1024.000000pt" viewBox="0 0 1024.000000 1024.000000"
 preserveAspectRatio="xMidYMid meet">

<g transform="translate(0.000000,1024.000000) scale(0.100000,-0.100000)"
fill="#000000" stroke="none">
<path d="M7697 7892 c-17 -19 -14 -68 14 -197 17 -79 19 -84 38 -90 35 -11 51
5 51 49 0 51 -28 214 -41 238 -12 23 -41 23 -62 0z"/>
<path d="M8104 7666 c-69 -67 -94 -99 -94 -117 0 -30 17 -49 43 -49 22 0 172
141 193 183 17 32 6 62 -27 70 -17 5 -40 -13 -115 -87z"/>
<path d="M4105 7680 l-1150 -5 -72 -26 c-91 -34 -200 -106 -258 -172 -61 -69
-131 -212 -150 -309 -12 -63 -15 -166 -15 -546 l0 -470 -36 -7 c-71 -13 -114
-61 -114 -126 0 -23 -12 -44 -46 -82 -25 -28 -57 -71 -71 -96 -15 -25 -27 -47
-28 -48 -1 -2 -26 7 -56 18 -210 81 -449 -156 -449 -446 0 -193 104 -305 233
-251 18 7 59 34 90 60 57 46 57 46 66 23 5 -13 21 -37 35 -55 l27 -31 -19 -38
c-24 -47 -36 -192 -21 -246 13 -48 67 -108 127 -142 26 -15 91 -42 145 -60 54
-18 101 -36 104 -39 3 -3 7 -51 10 -108 14 -361 191 -602 513 -699 72 -22 94
-23 545 -28 259 -3 1186 -6 2060 -6 1795 0 1648 -6 1825 81 174 86 291 234
340 428 19 76 20 113 20 938 l0 858 23 9 c36 14 83 74 100 128 9 26 18 82 22
124 l6 76 39 12 c102 30 145 147 86 236 -9 13 -16 28 -16 33 0 4 21 25 46 46
l45 38 92 -43 c151 -70 233 -65 291 20 87 125 36 354 -111 500 -88 87 -161
123 -260 129 -59 3 -80 0 -117 -18 -55 -26 -116 -92 -116 -124 0 -18 -11 -29
-49 -49 l-49 -25 -13 51 c-59 254 -280 441 -562 477 -99 13 -1484 17 -3112 10z
m2530 -183 c542 -3 616 -5 661 -20 82 -27 139 -64 198 -127 66 -72 97 -146
104 -251 l4 -75 -68 -51 c-164 -120 -190 -126 -285 -73 -183 102 -264 136
-406 169 -384 90 -859 -4 -1113 -221 -97 -84 -188 -227 -232 -368 -20 -66 -23
-95 -23 -240 0 -198 14 -268 85 -415 51 -105 141 -222 222 -287 125 -101 230
-142 593 -233 263 -65 336 -97 372 -161 54 -94 5 -196 -119 -248 -58 -25 -182
-30 -266 -12 -148 31 -260 108 -371 255 -31 41 -68 83 -83 94 -33 25 -103 26
-144 3 -50 -27 -401 -260 -424 -281 -38 -34 -52 -79 -39 -128 28 -107 128
-255 259 -381 76 -75 81 -81 63 -94 -10 -8 -85 -48 -168 -88 -173 -86 -163
-71 -164 -246 l-1 -98 -450 0 c-247 0 -450 2 -450 4 0 2 33 14 73 26 99 30
178 64 268 116 72 42 79 44 200 54 233 21 279 49 279 168 0 104 -109 1357
-126 1450 -8 44 -39 80 -78 90 -23 7 -118 0 -327 -24 -923 -104 -975 -111
-1005 -127 -43 -22 -65 -71 -58 -133 3 -27 13 -164 24 -305 20 -279 26 -307
80 -329 37 -15 99 -12 403 26 120 14 220 24 223 22 3 -3 6 -45 7 -93 l2 -88
-100 -33 c-136 -47 -228 -64 -333 -64 -310 0 -603 213 -709 514 -37 105 -44
290 -14 405 56 224 213 412 426 512 98 46 174 62 285 61 176 -1 331 -65 480
-197 115 -102 152 -115 217 -75 50 30 443 431 459 468 30 67 -24 160 -154 268
-203 169 -428 274 -717 335 -98 21 -137 24 -345 24 -209 0 -246 -3 -338 -23
-126 -28 -282 -82 -373 -127 -164 -83 -339 -225 -435 -352 -32 -43 -62 -82
-67 -88 -5 -6 -7 136 -4 340 5 378 11 424 63 528 15 28 55 80 89 113 70 69
139 101 240 112 56 7 2248 6 3610 -1z m1590 -231 c200 -94 328 -460 182 -521
-39 -16 -69 -8 -187 55 -52 27 -100 50 -108 50 -7 0 -48 -27 -92 -61 l-79 -61
-48 15 c-26 9 -62 18 -80 22 -84 17 -194 -59 -208 -143 -15 -91 65 -190 180
-222 l45 -13 0 -61 c0 -78 -14 -127 -46 -166 -22 -26 -32 -30 -75 -30 -91 0
-163 57 -224 180 -59 116 -105 287 -105 385 0 50 3 55 38 83 43 35 418 295
485 338 28 17 47 36 47 47 0 42 43 93 100 119 35 16 125 8 175 -16z m-1576
-346 c190 -24 347 -76 495 -163 50 -29 103 -58 117 -64 23 -10 29 -24 52 -125
32 -135 44 -213 31 -205 -5 3 -28 8 -50 11 -23 4 -56 11 -75 16 -19 6 -43 10
-54 9 -18 0 -17 -1 4 -10 20 -8 22 -14 16 -45 -5 -28 -3 -34 7 -28 10 6 10 5
2 -7 -6 -8 -10 -22 -8 -32 3 -22 14 -36 14 -19 0 7 10 12 22 12 16 0 19 -3 11
-11 -6 -6 -9 -18 -6 -25 11 -30 -16 -11 -90 64 -68 69 -76 80 -63 92 13 10 19
10 33 -1 11 -10 14 -10 9 -1 -4 7 -2 12 6 13 32 1 -39 19 -90 22 -61 4 -135
34 -125 50 3 6 1 7 -5 3 -7 -4 -46 4 -87 18 -205 69 -443 54 -579 -36 -121
-81 -167 -238 -104 -361 24 -47 83 -114 109 -122 11 -4 16 -11 13 -17 -4 -6
-2 -8 3 -5 6 4 35 -4 64 -18 30 -13 92 -33 139 -44 47 -10 79 -20 73 -20 -7
-1 -13 -5 -13 -11 0 -14 -42 -60 -54 -60 -6 0 -24 12 -39 26 -27 24 -93 51
-103 41 -3 -3 7 -7 21 -11 27 -7 35 -36 10 -36 -8 0 -15 7 -15 16 0 10 -6 14
-15 10 -8 -3 -15 -1 -15 4 0 6 -5 10 -11 10 -7 0 -17 6 -23 14 -10 13 -26 13
-121 1 -60 -8 -113 -14 -117 -15 -10 0 0 -44 12 -48 6 -2 6 -11 -1 -25 -11
-19 -8 -53 16 -179 4 -24 -1 -23 -69 15 -74 41 -89 62 -61 85 11 9 28 40 37
67 9 28 20 59 24 70 7 18 6 18 -9 6 -9 -7 -17 -22 -17 -32 0 -19 -17 -35 -28
-25 -3 4 0 16 7 27 15 25 4 41 -12 18 -7 -9 -18 -14 -25 -11 -19 6 -75 -19
-91 -41 -12 -18 -15 -16 -48 30 -47 64 -97 173 -117 254 -36 146 -12 338 56
458 39 68 142 177 211 225 113 78 308 144 487 166 96 11 146 11 239 0z m-2474
-130 c175 -37 316 -93 462 -184 94 -58 236 -173 231 -186 -4 -11 -116 -126
-230 -239 l-96 -93 -65 55 c-245 208 -606 265 -906 143 -157 -64 -385 -259
-461 -393 -37 -66 -57 -81 -46 -35 12 45 19 150 12 177 -18 70 -91 114 -251
151 -44 10 -82 19 -84 20 -9 7 113 177 169 237 172 185 442 315 750 363 124
19 387 11 515 -16z m3688 -126 c42 -21 97 -73 108 -103 21 -54 -24 -91 -114
-91 -101 0 -187 70 -172 141 13 60 108 88 178 53z m-826 -259 c-1 -5 4 -9 11
-7 8 1 11 -2 7 -8 -4 -6 -15 -4 -31 6 -29 20 -29 20 -5 20 11 0 19 -5 18 -11z
m-318 -69 c118 -34 202 -86 322 -202 58 -57 118 -106 133 -110 55 -13 114 2
168 43 29 22 66 53 82 68 l30 27 19 -26 c10 -14 39 -38 63 -52 l44 -26 0 -370
c0 -243 -3 -367 -10 -363 -5 3 -10 13 -10 22 0 27 -78 183 -124 247 -83 116
-232 239 -381 314 -88 44 -214 86 -350 116 -250 57 -291 68 -335 90 -49 24
-90 76 -90 112 0 52 83 113 183 134 59 12 166 3 256 -24z m576 -35 c-3 -5 -1
-12 4 -15 5 -4 12 -2 16 4 3 5 10 10 15 10 5 0 -10 -18 -34 -40 -46 -43 -59
-49 -50 -25 4 8 10 15 16 15 17 0 39 28 28 35 -10 6 -5 25 6 25 3 0 3 -4 -1
-9z m-4352 -284 c23 -15 27 -25 27 -61 0 -25 -5 -66 -11 -93 -10 -42 -9 -54 5
-82 23 -43 30 -113 21 -206 l-7 -78 -23 57 c-29 72 -65 118 -123 161 -98 72
-181 82 -282 34 l-65 -31 -113 12 c-62 7 -114 16 -117 20 -8 14 38 86 90 140
43 45 54 63 59 101 l7 46 62 6 c55 6 65 10 90 40 l28 34 163 -41 c89 -23 174
-49 189 -59z m3131 -181 c-21 -15 -30 -14 -19 3 3 6 14 11 23 11 13 0 13 -2
-4 -14z m237 -24 c-27 -9 -7 -20 27 -15 25 4 34 2 27 -5 -5 -6 -28 -12 -50
-14 -42 -3 -41 -5 -37 54 2 21 2 21 23 2 11 -10 16 -20 10 -22z m-391 -2 c0
-5 -7 -10 -16 -10 -8 0 -12 5 -9 10 3 6 10 10 16 10 5 0 9 -4 9 -10z m491 -27
c-12 -20 -14 -14 -5 12 4 9 9 14 11 11 3 -2 0 -13 -6 -23z m195 12 c19 -15 19
-16 -1 -14 -35 2 -46 -1 -40 -11 3 -5 2 -10 -4 -10 -6 0 -7 -8 -4 -17 6 -16 5
-16 -10 -4 -9 7 -17 20 -17 27 0 8 -6 14 -12 14 -14 1 40 28 58 29 5 1 19 -6
30 -14z m-762 -19 c-18 -14 -18 -15 -2 -21 10 -4 15 -11 12 -17 -3 -5 -12 -1
-19 9 -14 19 -4 43 18 43 6 0 2 -6 -9 -14z m76 4 c0 -5 -10 -10 -22 -9 -22 0
-22 1 -3 9 11 5 21 9 23 9 1 1 2 -3 2 -9z m530 -5 c0 -3 -5 -11 -10 -18 -31
-37 -150 -209 -150 -217 0 -20 -23 -20 -87 0 -77 23 -145 53 -104 46 13 -3 38
1 56 8 37 16 88 64 80 76 -3 5 0 12 6 16 8 5 9 3 4 -6 -5 -8 -3 -11 6 -8 9 3
14 19 13 46 0 38 2 41 25 40 14 -1 33 -8 42 -15 13 -11 23 -9 60 11 45 25 59
30 59 21z m200 -9 c0 -3 -4 -8 -10 -11 -5 -3 -10 -1 -10 4 0 6 5 11 10 11 6 0
10 -2 10 -4z m-4547 -22 c18 -9 46 -29 62 -43 27 -24 45 -28 188 -44 l158 -18
57 28 c113 56 207 32 281 -73 51 -71 73 -145 79 -265 5 -128 -12 -202 -61
-256 -27 -29 -40 -35 -72 -35 -35 0 -45 6 -80 44 -25 28 -57 83 -83 145 -24
55 -56 112 -71 127 -39 38 -91 43 -165 17 l-59 -20 -42 24 c-53 31 -129 34
-183 6 -20 -11 -59 -43 -87 -71 -86 -89 -143 -130 -182 -130 -47 0 -70 14 -92
58 -29 58 -33 104 -17 183 29 138 115 271 206 319 44 24 121 25 163 4z m3815
3 c18 -1 15 -17 -4 -17 -9 0 -12 -5 -8 -12 4 -7 3 -8 -5 -4 -6 4 -9 11 -6 16
3 5 -3 14 -12 20 -16 10 -16 11 2 5 11 -4 26 -8 33 -8z m-41 -14 c-4 -3 3 -18
15 -32 l23 -26 -27 24 c-24 21 -29 41 -11 41 4 0 3 -3 0 -7z m283 -3 c0 -4 -6
-13 -13 -19 -11 -8 -18 -6 -31 8 -17 19 -17 20 13 19 17 -1 31 -4 31 -8z m627
-22 c4 -7 6 -24 4 -37 -1 -13 1 -21 6 -18 5 3 15 2 23 -3 12 -8 11 -13 -8 -30
-17 -16 -22 -18 -22 -5 0 8 -4 15 -10 15 -5 0 -10 -7 -10 -15 0 -9 -10 -29
-22 -45 l-21 -29 -49 40 c-47 40 -59 59 -38 59 14 0 70 39 90 62 18 21 46 23
57 6z m-604 -22 c3 -8 0 -17 -8 -20 -14 -5 -28 17 -18 28 10 10 21 7 26 -8z
m647 0 c0 -2 -7 -7 -16 -10 -8 -3 -12 -2 -9 4 6 10 25 14 25 6z m30 -37 c0 -5
-4 -9 -10 -9 -5 0 -10 7 -10 16 0 8 5 12 10 9 6 -3 10 -10 10 -16z m-1939 -19
c4 -8 14 -109 23 -225 9 -115 21 -260 27 -322 12 -127 12 -127 -69 -238 -53
-73 -85 -118 -110 -154 -9 -13 -26 -35 -38 -50 -11 -14 -29 -40 -40 -57 -10
-17 -43 -57 -71 -88 l-53 -57 -92 -9 c-51 -5 -106 -12 -123 -15 -16 -3 -93
-12 -170 -20 -77 -8 -261 -28 -410 -45 -361 -41 -430 -41 -590 -4 -33 7 -63
14 -67 14 -4 0 -8 -16 -10 -36 l-3 -36 -25 28 c-14 16 -17 22 -7 15 24 -19 21
-8 -5 15 -12 10 -18 13 -14 7 22 -38 -23 -1 -115 95 -113 117 -180 219 -222
337 -26 73 -52 184 -45 191 3 2 22 -5 43 -16 64 -33 115 -23 173 33 35 33 84
120 96 172 7 28 10 25 35 -50 60 -178 197 -353 363 -466 253 -172 556 -204
896 -94 132 43 194 80 222 135 20 40 21 47 10 203 -12 173 -24 216 -64 242
-30 20 -20 20 -316 -19 -107 -14 -226 -27 -265 -28 l-70 -3 -19 208 c-10 116
-14 213 -10 217 5 5 131 23 279 40 149 17 389 46 535 65 291 36 309 37 321 15z
m1952 -5 c-3 -9 -8 -14 -10 -11 -3 3 -2 9 2 15 9 16 15 13 8 -4z m-273 -34 c0
-6 -4 -13 -10 -16 -5 -3 -10 1 -10 9 0 9 5 16 10 16 6 0 10 -4 10 -9z m277 3
c-3 -3 -12 -4 -19 -1 -8 3 -5 6 6 6 11 1 17 -2 13 -5z m-60 -11 c-10 -3 -14
-9 -10 -16 4 -7 -1 -6 -10 2 -23 18 -22 21 11 20 17 -1 20 -3 9 -6z m-282 -83
c-3 -5 -11 -10 -16 -10 -6 0 -7 5 -4 10 3 6 11 10 16 10 6 0 7 -4 4 -10z m-54
-13 c-1 -4 -3 -7 -6 -7 -3 0 -15 0 -27 1 -22 0 -22 1 -3 9 22 9 37 8 36 -3z
m-4210 -198 c46 -24 67 -30 93 -25 32 6 35 4 41 -22 9 -44 60 -99 110 -117 34
-14 46 -24 54 -49 25 -80 23 -96 -33 -236 -30 -74 -59 -136 -65 -138 -17 -6
-186 55 -234 85 -62 37 -81 77 -72 150 4 30 15 73 26 96 28 63 24 97 -16 150
-42 54 -46 98 -13 121 31 22 40 20 109 -15z m254 -30 c9 -17 14 -33 11 -36 -4
-4 -36 49 -36 62 0 13 11 2 25 -26z m5052 -501 c-3 -7 -5 -2 -5 12 0 14 2 19
5 13 2 -7 2 -19 0 -25z m-595 -155 c10 -9 18 -21 18 -27 0 -6 -5 -3 -11 7 -6
10 -20 22 -32 27 -12 5 -16 9 -8 9 8 1 23 -6 33 -16z m-181 -18 c-33 -15 -80
-21 -68 -9 7 7 63 22 87 23 8 0 0 -6 -19 -14z m-171 -25 c-8 -5 -19 -10 -25
-10 -5 0 -3 5 5 10 8 5 20 10 25 10 6 0 3 -5 -5 -10z m215 -16 c19 -30 19 -48
0 -40 -9 3 -15 0 -15 -9 0 -24 -28 -17 -46 10 -12 19 -14 28 -5 38 6 8 8 16 5
19 -2 3 6 6 20 6 16 0 31 -10 41 -24z m-4191 -20 c3 -8 2 -12 -4 -9 -6 3 -10
10 -10 16 0 14 7 11 14 -7z m3940 1 c-4 -8 -12 -15 -20 -15 -8 0 -14 -5 -14
-12 0 -6 -3 -8 -7 -5 -7 8 25 47 38 47 5 0 6 -7 3 -15z m-113 -18 c-10 -9 -11
-8 -5 6 3 10 9 15 12 12 3 -3 0 -11 -7 -18z m404 -27 c-3 -5 -14 -10 -23 -9
-14 0 -13 2 3 9 27 11 27 11 20 0z m105 -15 c0 -2 -10 -9 -22 -15 -22 -11 -22
-10 -4 4 21 17 26 19 26 11z"/>
<path d="M3073 7280 c-23 -13 -34 -29 -39 -55 -8 -45 12 -78 66 -105 30 -15
40 -26 40 -45 0 -13 -8 -28 -17 -34 -10 -5 -76 -9 -146 -9 -136 -1 -160 -8
-155 -46 3 -20 10 -21 148 -24 169 -3 208 8 235 65 30 62 2 121 -80 169 -24
13 -11 34 20 34 18 0 26 7 31 26 12 46 -45 60 -103 24z"/>
<path d="M4598 7279 c-16 -9 -18 -26 -18 -124 0 -113 0 -115 24 -121 68 -17
87 16 79 135 -4 69 -9 89 -25 104 -23 19 -35 21 -60 6z"/>
<path d="M4977 7261 c-10 -3 -38 -33 -62 -66 -38 -51 -45 -67 -45 -106 0 -30
6 -51 16 -60 13 -11 26 -1 95 69 80 83 93 111 67 144 -16 20 -47 29 -71 19z"/>
<path d="M6108 5138 c6 -7 24 -21 41 -31 l31 -18 0 24 c0 19 -7 26 -31 31 -46
9 -53 8 -41 -6z"/>
<path d="M7855 6924 c-129 -88 -132 -91 -89 -119 21 -13 28 -14 34 -4 5 6 6
18 3 25 -2 6 6 19 18 28 22 15 25 14 46 -6 16 -15 27 -18 34 -11 7 7 5 14 -6
23 -22 18 -19 35 9 54 24 15 26 14 45 -10 14 -18 24 -23 36 -17 13 8 11 15
-12 51 -15 23 -30 42 -33 41 -3 0 -41 -25 -85 -55z"/>
<path d="M6277 6884 c-3 -3 -3 -12 0 -20 3 -8 0 -14 -7 -14 -6 0 -9 -4 -6 -9
3 -5 -6 -12 -20 -15 -15 -4 -24 -9 -22 -11 2 -2 21 1 42 7 35 11 60 42 49 61
-5 8 -27 9 -36 1z"/>
<path d="M6611 6754 c0 -11 3 -14 6 -6 3 7 2 16 -1 19 -3 4 -6 -2 -5 -13z"/>
<path d="M6085 6729 c-4 -6 -5 -12 -2 -15 2 -3 7 2 10 11 7 17 1 20 -8 4z"/>
<path d="M6550 6680 c-13 -8 -12 -10 3 -10 9 0 17 5 17 10 0 12 -1 12 -20 0z"/>
<path d="M6080 6645 c0 -5 5 -17 10 -25 5 -8 10 -10 10 -5 0 6 -5 17 -10 25
-5 8 -10 11 -10 5z"/>
<path d="M6282 6613 c-18 -8 -31 -17 -29 -19 4 -5 67 25 67 32 0 6 -1 5 -38
-13z"/>
<path d="M6697 6583 c-10 -9 -9 -23 2 -23 5 0 11 7 15 15 5 15 -5 20 -17 8z"/>
<path d="M7158 6433 c7 -3 16 -2 19 1 4 3 -2 6 -13 5 -11 0 -14 -3 -6 -6z"/>
<path d="M7075 6381 c-7 -12 29 -33 40 -23 5 4 5 -1 2 -10 -3 -10 -2 -17 3
-15 5 1 20 -11 33 -27 16 -20 24 -24 24 -13 0 9 -4 14 -9 11 -4 -3 -8 1 -8 9
0 8 -7 17 -15 21 -8 3 -15 12 -15 21 0 10 -7 15 -17 13 -10 -2 -17 3 -15 10 2
14 -14 16 -23 3z"/>
<path d="M6072 6095 c-11 -12 -10 -15 3 -15 8 0 15 7 15 15 0 18 -2 18 -18 0z"/>
<path d="M6101 6084 c0 -11 3 -14 6 -6 3 7 2 16 -1 19 -3 4 -6 -2 -5 -13z"/>
<path d="M6091 6045 c-1 -6 -16 -9 -36 -7 -21 3 -35 0 -35 -7 0 -6 5 -11 11
-11 8 0 7 -6 -2 -16 -11 -14 -10 -19 10 -35 23 -19 23 -20 6 -39 -37 -41 -3
-18 44 29 44 45 48 51 35 68 -13 17 -13 17 -15 -2 -1 -17 -2 -16 -9 5 -4 14
-8 20 -9 15z m-1 -40 c8 -9 8 -15 2 -15 -6 0 -12 -6 -15 -12 -2 -7 -3 -5 -2 4
2 10 -1 21 -6 24 -5 3 -9 0 -9 -5 0 -6 -4 -11 -10 -11 -5 0 -7 7 -4 15 4 8 12
15 19 15 7 0 18 -7 25 -15z"/>
<path d="M5707 5983 c3 -7 6 -13 8 -13 2 0 5 6 8 13 3 8 -1 14 -8 14 -7 0 -11
-6 -8 -14z"/>
<path d="M5865 5911 c-3 -5 -1 -12 5 -16 5 -3 10 1 10 9 0 18 -6 21 -15 7z"/>
<path d="M6335 5880 c28 -12 37 -12 30 0 -3 6 -16 10 -28 9 -21 0 -21 -1 -2
-9z"/>
<path d="M5930 5690 c0 -5 5 -10 11 -10 5 0 7 5 4 10 -3 6 -8 10 -11 10 -2 0
-4 -4 -4 -10z"/>
<path d="M6297 5723 c-4 -3 -7 -11 -7 -17 0 -6 5 -5 12 2 6 6 9 14 7 17 -3 3
-9 2 -12 -2z"/>
<path d="M6190 5560 c8 -5 22 -9 30 -9 10 0 8 3 -5 9 -27 12 -43 12 -25 0z"/>
<path d="M1988 5688 c-3 -33 -3 -33 -53 -30 -47 3 -51 1 -52 -20 -1 -13 -5
-33 -8 -45 -5 -23 0 -26 60 -35 17 -3 20 -10 17 -50 -4 -50 -4 -50 70 -62 l37
-7 3 43 3 43 48 3 47 3 0 49 0 49 -42 3 -43 3 2 43 2 42 -44 0 c-42 0 -44 -1
-47 -32z m74 -98 c-2 -19 -5 -36 -7 -38 -2 -2 -19 0 -39 3 -33 7 -36 10 -36
42 0 34 0 34 43 31 42 -3 42 -3 39 -38z"/>
<path d="M2653 5610 c-4 -22 -10 -29 -22 -26 -67 20 -69 20 -80 -21 -6 -21
-11 -43 -11 -49 0 -14 23 -24 57 -24 25 0 26 -1 20 -50 -5 -44 -4 -50 12 -50
10 0 32 -3 49 -6 31 -6 31 -6 38 44 l6 51 44 -6 44 -6 0 36 c0 19 3 42 6 51 5
12 -4 15 -43 18 -48 3 -48 3 -45 36 3 31 2 32 -32 32 -33 0 -37 -3 -43 -30z
m65 -49 c17 -10 2 -77 -16 -75 -7 1 -25 2 -42 3 -27 1 -30 4 -30 34 0 19 3 37
7 40 9 10 65 8 81 -2z"/>
<path d="M2217 5511 c-9 -16 -17 -32 -17 -35 0 -10 38 -7 45 4 12 19 45 11 45
-10 0 -11 7 -20 15 -20 8 0 15 6 15 14 0 21 17 29 46 22 15 -4 24 -14 24 -26
0 -13 7 -20 20 -20 16 0 20 7 20 35 0 31 -3 35 -32 39 -18 3 -60 10 -92 16
-33 5 -62 10 -66 10 -3 0 -13 -13 -23 -29z"/>
<path d="M4671 4664 c0 -11 3 -14 6 -6 3 7 2 16 -1 19 -3 4 -6 -2 -5 -13z"/>
<path d="M6800 4504 c0 -8 5 -12 10 -9 6 4 8 11 5 16 -9 14 -15 11 -15 -7z"/>
<path d="M2179 6502 c-22 -19 -22 -19 -9 -148 15 -154 21 -174 54 -174 47 0
51 19 38 167 -7 75 -15 140 -18 144 -14 24 -43 28 -65 11z"/>
<path d="M8275 6406 c-112 -44 -152 -76 -140 -108 12 -30 35 -28 133 8 142 53
172 70 172 97 0 27 -17 47 -39 46 -9 0 -65 -20 -126 -43z"/>
<path d="M1790 6209 c-9 -16 -7 -26 7 -49 31 -50 162 -188 184 -195 27 -9 49
11 49 47 0 23 -19 48 -91 123 -96 100 -128 115 -149 74z"/>
<path d="M8073 6064 c-7 -3 -13 -18 -13 -34 0 -15 6 -32 13 -38 15 -13 241
-36 273 -28 27 7 39 38 25 65 -8 13 -25 22 -54 25 -73 9 -231 15 -244 10z"/>
<path d="M7908 5745 c-10 -23 -8 -29 18 -55 37 -36 192 -130 215 -130 34 0 59
39 41 66 -11 19 -225 144 -245 144 -9 0 -23 -11 -29 -25z"/>
<path d="M5102 3369 c-68 -9 -99 -30 -124 -86 -38 -85 0 -177 90 -218 78 -36
141 -80 152 -105 14 -34 4 -76 -23 -95 -31 -22 -126 -19 -187 5 l-50 20 0 -46
c0 -43 2 -46 38 -61 57 -24 177 -23 227 3 61 31 85 74 85 149 0 89 -23 119
-130 172 -89 44 -130 80 -130 114 0 61 63 89 145 66 28 -8 58 -18 68 -22 15
-6 17 -1 17 38 0 33 -4 47 -17 52 -36 14 -110 20 -161 14z"/>
<path d="M5618 3370 c-84 -21 -165 -104 -189 -194 -6 -22 -9 -81 -7 -131 3
-78 7 -100 33 -149 19 -38 45 -69 73 -90 39 -28 53 -31 127 -34 67 -3 91 0
130 17 26 11 51 18 56 15 5 -3 9 -61 9 -130 0 -123 0 -125 25 -136 19 -8 28
-8 40 2 13 11 15 67 15 421 l0 409 -36 0 c-28 0 -37 -5 -41 -20 -3 -12 -8 -19
-12 -17 -69 38 -159 53 -223 37z m172 -95 c14 -7 31 -20 37 -27 9 -11 18 -232
14 -335 -2 -36 -78 -66 -159 -61 -111 6 -162 64 -170 193 -8 121 42 219 124
245 36 11 118 3 154 -15z"/>
<path d="M7895 3375 c-5 -2 -26 -6 -46 -9 -51 -9 -121 -73 -150 -138 -20 -45
-24 -69 -24 -158 0 -88 4 -113 23 -155 40 -87 97 -132 182 -146 55 -8 160 6
201 27 25 13 30 20 27 47 -3 36 -5 37 -93 13 -135 -37 -234 22 -251 147 l-7
47 188 0 188 0 -5 79 c-6 105 -42 181 -101 215 -40 23 -110 39 -132 31z m105
-110 c29 -28 58 -114 45 -135 -4 -6 -60 -10 -147 -10 l-140 0 7 38 c9 51 46
105 86 126 48 24 113 16 149 -19z"/>
<path d="M2262 3356 c-59 -19 -108 -59 -135 -109 -20 -38 -22 -56 -22 -177 1
-146 9 -179 59 -233 40 -43 91 -60 176 -60 41 1 87 6 103 12 25 10 27 9 27
-14 0 -35 -39 -75 -84 -85 -46 -10 -135 2 -189 27 -44 19 -48 16 -69 -50 -14
-48 -6 -65 48 -92 33 -17 59 -20 164 -20 117 0 128 2 176 27 60 32 96 71 118
130 14 37 16 84 14 318 l-3 275 -85 29 c-102 34 -231 44 -298 22z m189 -136
c17 -10 19 -22 19 -137 0 -116 -2 -129 -22 -150 -15 -16 -33 -23 -60 -23 -80
0 -108 40 -108 155 0 81 17 136 47 154 23 13 99 14 124 1z"/>
<path d="M2860 3357 c-92 -18 -93 -19 -70 -79 11 -28 23 -55 28 -60 4 -4 41
-1 81 7 40 9 88 13 106 9 42 -8 75 -38 75 -69 0 -24 -2 -25 -73 -25 -129 0
-223 -43 -253 -117 -30 -71 -8 -180 47 -230 52 -47 161 -53 241 -12 44 23 48
23 48 5 0 -19 22 -26 78 -26 99 0 92 -16 92 220 0 128 -4 220 -11 241 -19 55
-58 100 -107 122 -57 25 -190 31 -282 14z m220 -386 c0 -68 0 -69 -34 -85 -46
-22 -78 -20 -110 5 -21 16 -26 29 -26 64 0 61 31 85 111 85 l59 0 0 -69z"/>
<path d="M3927 3359 c-21 -5 -52 -16 -69 -25 -28 -15 -34 -15 -72 3 -34 15
-64 18 -181 17 -77 -1 -159 -7 -182 -13 l-43 -12 0 -278 c0 -317 -9 -291 95
-291 98 0 96 -5 94 235 -1 112 2 208 5 214 4 6 26 11 50 11 73 0 75 -5 78
-246 l3 -209 72 -3 c119 -5 113 -16 113 226 0 149 3 211 12 220 17 17 74 15
92 -4 9 -8 17 -16 18 -17 1 -1 4 -96 7 -212 l6 -210 65 -3 c35 -2 75 0 87 3
l23 5 0 208 c0 157 -4 221 -15 259 -20 66 -65 107 -135 122 -58 12 -70 13
-123 0z"/>
<path d="M4483 3360 c-58 -13 -125 -71 -158 -135 -28 -54 -30 -67 -30 -164 0
-64 5 -121 14 -145 18 -51 77 -115 126 -137 80 -35 257 -34 332 3 26 13 28 18
26 68 -2 29 -6 57 -11 62 -5 5 -26 1 -48 -8 -50 -22 -159 -24 -198 -4 -33 17
-63 55 -68 85 -3 19 3 20 186 23 l189 2 -5 78 c-6 97 -36 168 -93 221 -24 22
-60 44 -81 50 -44 12 -133 13 -181 1z m149 -140 c29 -22 44 -76 27 -96 -8 -10
-38 -14 -101 -14 -99 0 -110 7 -88 61 28 66 110 91 162 49z"/>
<path d="M6777 3355 c-50 -17 -51 -18 -38 -58 l12 -35 46 14 c131 39 223 -6
223 -111 l0 -35 -76 0 c-100 0 -158 -16 -199 -54 -80 -76 -67 -235 23 -289 65
-37 158 -31 225 15 l27 19 0 -25 c0 -24 3 -26 50 -26 l50 0 0 173 c-1 226 -10
299 -47 351 -41 59 -82 76 -178 76 -44 -1 -97 -7 -118 -15z m243 -373 c0 -69
-3 -81 -22 -100 -83 -77 -203 -44 -215 59 -4 38 -1 50 21 76 30 36 43 40 144
42 l72 1 0 -78z"/>
<path d="M7287 3363 c-4 -3 -7 -138 -7 -300 l0 -293 50 0 50 0 0 193 c0 187 1
195 25 244 32 64 76 88 146 80 51 -6 59 0 59 48 0 27 -17 35 -71 35 -56 0
-100 -21 -137 -66 l-32 -39 0 47 c0 33 -5 48 -16 52 -21 8 -59 8 -67 -1z"/>
<path d="M6102 3128 c3 -227 4 -234 28 -277 34 -59 77 -81 160 -81 64 0 139
24 154 49 13 21 26 11 26 -19 0 -29 2 -30 45 -30 l45 0 0 295 0 295 -45 0 -45
0 0 -218 0 -218 -27 -26 c-36 -35 -73 -48 -132 -48 -60 0 -96 26 -111 78 -5
20 -10 126 -10 235 l0 197 -46 0 -45 0 3 -232z"/>
</g>
</svg>
